<?xml version="1.0" encoding="utf-8"?>
<!-- Generator: Adobe Illustrator 16.0.0, SVG Export Plug-In . SVG Version: 6.00 Build 0)  -->
<!DOCTYPE svg PUBLIC "-//W3C//DTD SVG 1.1//EN" "http://www.w3.org/Graphics/SVG/1.1/DTD/svg11.dtd">
<svg version="1.1" xmlns="http://www.w3.org/2000/svg" xmlns:xlink="http://www.w3.org/1999/xlink" x="0px" y="0px" width="792px"
	 height="792px" viewBox="0 0 792 792" enable-background="new 0 0 792 792" xml:space="preserve">
<g id="Layer_1">
	<circle fill="#FFFFFF" stroke="#000000" stroke-miterlimit="10" cx="394.058" cy="395.286" r="342.733"/>
	<path fill="#4C81AC" d="M396,749.5c-47.718,0-94.014-9.348-137.602-27.784c-42.095-17.805-79.899-43.292-112.361-75.754
		c-32.461-32.461-57.949-70.265-75.754-112.36C51.848,490.014,42.5,443.718,42.5,396s9.348-94.014,27.784-137.602
		c17.805-42.095,43.292-79.899,75.754-112.361s70.266-57.949,112.361-75.754C301.986,51.848,348.282,42.5,396,42.5
		s94.014,9.348,137.602,27.784c42.096,17.805,79.899,43.292,112.36,75.754c32.462,32.461,57.949,70.266,75.754,112.361
		C740.152,301.986,749.5,348.282,749.5,396s-9.348,94.014-27.784,137.602c-17.805,42.096-43.292,79.899-75.754,112.36
		c-32.461,32.462-70.265,57.949-112.36,75.754C490.014,740.152,443.718,749.5,396,749.5z M396,62.5
		C212.107,62.5,62.5,212.107,62.5,396S212.107,729.5,396,729.5S729.5,579.893,729.5,396S579.893,62.5,396,62.5z"/>
	<rect x="71.028" y="391.363" fill="#4C81AC" width="40.981" height="9.251"/>
	
		<rect x="115.533" y="544.222" transform="matrix(0.8624 -0.5063 0.5063 0.8624 -259.1456 144.4009)" fill="#4C81AC" width="40.982" height="9.251"/>
	
		<rect x="228.173" y="654.96" transform="matrix(0.4876 -0.8731 0.8731 0.4876 -448.447 555.0707)" fill="#4C81AC" width="40.981" height="9.251"/>
	
		<rect x="375.509" y="698.877" transform="matrix(-0.0212 -0.9998 0.9998 -0.0212 -298.9359 1114.3491)" fill="#4C81AC" width="40.981" height="9.25"/>
	
		<rect x="104.692" y="247.285" transform="matrix(-0.8831 -0.4692 0.4692 -0.8831 117.523 533.1065)" fill="#4C81AC" width="40.982" height="9.251"/>
	
		<rect x="521.177" y="126.488" transform="matrix(-0.4507 0.8927 -0.8927 -0.4507 902.8425 -293.3257)" fill="#4C81AC" width="40.981" height="9.249"/>
	
		<rect x="217.279" y="133.904" transform="matrix(0.5253 0.8509 -0.8509 0.5253 230.7451 -136.5638)" fill="#4C81AC" width="40.984" height="9.251"/>
	
		<rect x="681.507" y="391.876" transform="matrix(1 -0.0077 0.0077 1 -3.0498 5.4488)" fill="#4C81AC" width="40.98" height="9.251"/>
	
		<rect x="638.51" y="235.724" transform="matrix(0.8438 -0.5367 0.5367 0.8438 -26.0488 391.2047)" fill="#4C81AC" width="40.98" height="9.251"/>
	
		<rect x="537.874" y="647.287" transform="matrix(0.4989 0.8667 -0.8667 0.4989 844.8268 -157.2235)" fill="#4C81AC" width="40.981" height="9.249"/>
	
		<rect x="645.343" y="529.859" transform="matrix(0.9019 0.4319 -0.4319 0.9019 296.1288 -235.1426)" fill="#4C81AC" width="40.98" height="9.25"/>
</g>
<g id="Layer_2">
	<path fill="#4C81AC" d="M511.678,323.237l65.658-70.068l-6.061-5.936l-62.689,64.817c-0.096,0.105-0.188,0.212-0.287,0.315
		c-0.068,0.07-0.141,0.132-0.209,0.199l-1.037,1.071l-0.117-0.116c-2.225,1.559-4.725,1.844-6.072,0.525
		c-1.346-1.319-1.113-3.825,0.4-6.08l-0.119-0.116l1.049-1.058c0.066-0.07,0.127-0.143,0.195-0.213
		c0.102-0.103,0.207-0.198,0.311-0.295l63.502-64.019l-6.557-6.422l-62.688,64.817c-0.096,0.105-0.189,0.211-0.291,0.314
		c-0.068,0.07-0.141,0.133-0.209,0.2l-1.035,1.071l-0.119-0.116c-2.223,1.559-4.723,1.844-6.07,0.526
		c-1.346-1.32-1.113-3.826,0.398-6.082l-0.117-0.115l1.049-1.059c0.064-0.07,0.127-0.143,0.195-0.212
		c0.102-0.103,0.207-0.197,0.309-0.295l63.504-64.019l-6.557-6.423l-62.689,64.817c-0.096,0.105-0.188,0.211-0.289,0.314
		c-0.068,0.07-0.139,0.133-0.209,0.199l-1.035,1.072l-0.117-0.116c-2.225,1.558-4.727,1.844-6.072,0.525
		c-1.346-1.319-1.113-3.825,0.398-6.081l-0.117-0.116l1.049-1.058c0.066-0.07,0.127-0.143,0.195-0.213
		c0.102-0.104,0.207-0.198,0.309-0.295l63.504-64.019l-7.07-6.927l-69.199,66.601c-4.205,4.294-8.969,21.417-1.887,35.226
		l-96.338,95.458c-0.119,0.098-0.241,0.193-0.35,0.305c-0.074,0.076-0.134,0.162-0.202,0.24l-1.148,1.139l0.303,0.297
		c-1.112,2.963,0.316,7.33,3.773,10.715c3.458,3.387,7.854,4.725,10.793,3.551l0.303,0.297l1.113-1.172
		c0.078-0.068,0.164-0.131,0.238-0.205c0.107-0.113,0.201-0.236,0.297-0.357l93.168-98.008
		C490.58,334.043,507.35,327.655,511.678,323.237z"/>
	<path fill="#4C81AC" d="M403.923,425.398L401.911,244.5c5.838-0.25,20.363,2.845,23.919-8.078
		C423.725,113,385.531,75.5,385.531,75.5v169h0.022l-2.01,180.899c-0.016,0.199-0.035,0.398-0.035,0.602
		c0,0.137,0.016,0.27,0.023,0.404l-0.023,2.096h0.408c1.232,3.752,5.156,6.5,9.817,6.5c4.66,0,8.584-2.748,9.814-6.5h0.409
		l-0.023-2.096c0.007-0.135,0.023-0.268,0.023-0.404C403.957,425.797,403.938,425.598,403.923,425.398z"/>
</g>
</svg>
