<svg id="Layer_1" data-name="Layer 1" xmlns="http://www.w3.org/2000/svg" viewBox="0 0 712 712"><defs><style>.cls-1{fill:#fff;stroke:#fff;stroke-miterlimit:10;stroke-width:5px;}</style></defs><g id="Layer_1-2" data-name="Layer 1"><path class="cls-1" d="M396,749.5A353.6,353.6,0,0,1,258.4,70.28,353.59,353.59,0,0,1,533.6,721.72,351.39,351.39,0,0,1,396,749.5Zm0-687C212.11,62.5,62.5,212.11,62.5,396S212.11,729.5,396,729.5,729.5,579.89,729.5,396,579.89,62.5,396,62.5Z" transform="translate(-40 -40)"/><rect class="cls-1" x="31.03" y="351.36" width="40.98" height="9.25"/><rect class="cls-1" x="115.55" y="544.23" width="40.98" height="9.25" transform="translate(-299.15 104.42) rotate(-30.42)"/><rect class="cls-1" x="228.19" y="654.95" width="40.98" height="9.25" transform="translate(-488.43 515.1) rotate(-60.82)"/><rect class="cls-1" x="391.41" y="683.02" width="9.25" height="40.98" transform="translate(-54.83 -31.45) rotate(-1.21)"/><rect class="cls-1" x="120.54" y="231.42" width="9.25" height="40.98" transform="translate(-196.02 204.25) rotate(-62.02)"/><rect class="cls-1" x="521.18" y="126.5" width="40.98" height="9.25" transform="translate(140.49 515.57) rotate(-63.21)"/><rect class="cls-1" x="233.15" y="118.03" width="9.25" height="40.98" transform="translate(-77.32 105.56) rotate(-31.69)"/><rect class="cls-1" x="681.51" y="391.92" width="40.98" height="9.25" transform="translate(-43.03 -34.58) rotate(-0.44)"/><rect class="cls-1" x="638.52" y="235.7" width="40.98" height="9.25" transform="translate(-66.03 351.23) rotate(-32.46)"/><rect class="cls-1" x="553.76" y="631.46" width="9.25" height="40.98" transform="translate(-290.8 325.49) rotate(-29.93)"/><rect class="cls-1" x="661.18" y="513.99" width="9.25" height="40.98" transform="translate(-143.82 864.13) rotate(-64.41)"/></g><g id="Layer_2" data-name="Layer 2"><path class="cls-1" d="M511.68,323.24l65.66-70.07-6.06-5.94-62.69,64.82-.29.31-.21.2-1,1.08-.11-.12c-2.23,1.56-4.73,1.84-6.08.52s-1.11-3.82.4-6.08l-.11-.11,1-1.06.2-.21c.1-.11.21-.2.31-.3l63.5-64-6.55-6.42L497,300.66l-.29.31-.21.2-1,1.07-.12-.11c-2.22,1.56-4.72,1.84-6.07.52s-1.11-3.82.4-6.08l-.12-.11,1.05-1.06c.07-.07.13-.15.2-.21s.21-.2.31-.3l63.5-64L548,224.45l-62.68,64.82-.29.31-.21.2-1,1.07-.11-.12c-2.23,1.56-4.73,1.85-6.08.53s-1.11-3.83.4-6.08l-.12-.12,1.05-1.06.2-.21.31-.29,63.5-64-7.07-6.93-69.2,66.6c-4.2,4.29-9,21.42-1.88,35.23l-96.34,95.45c-.12.1-.24.2-.35.31a2.12,2.12,0,0,0-.2.24l-1.15,1.14.3.3c-1.11,3,.32,7.33,3.77,10.71s7.86,4.73,10.8,3.55l.3.3,1.11-1.17a2.41,2.41,0,0,0,.24-.21,3.58,3.58,0,0,0,.3-.36l93.17-98C490.58,334,507.35,327.65,511.68,323.24Z" transform="translate(-40 -40)"/><path class="cls-1" d="M403.92,425.4l-2-180.9c5.84-.25,20.36,2.85,23.92-8.08C423.73,113,385.53,75.5,385.53,75.5v169h0l-2,180.9c0,.2,0,.4,0,.6s0,.27,0,.4l0,2.1h.41c1.23,3.75,5.15,6.5,9.81,6.5s8.59-2.75,9.82-6.5H404l0-2.1c0-.13,0-.26,0-.4S403.94,425.6,403.92,425.4Z" transform="translate(-40 -40)"/></g></svg>